# xmcd
#
# Track frame offsets:
#	150
#	10868
#	24180
#	34072
#	49561
#	60585
#	73143
#	85191
#	99227
#	112208
#	124126
#	137863
#
# Disc length: 2011 seconds
#
# Revision: 0
# Processed by: cddbd v1.4PL0 Copyright (c) Steve Scherf et al.
# Submitted via: dBpowerAMP V4.0
#
DISCID=9b07d90c
DTITLE=Otis Redding - 36 All-Time Favorites CD 1
DYEAR=2002
DGENRE=R&B
TTITLE0=Hard To Handle
TTITLE1=My Girl
TTITLE2=Respect
TTITLE3=Rock Me Baby
TTITLE4=Nobody's Fault But Mine
TTITLE5=Satisfaction
TTITLE6=Chained And Bound
TTITLE7=Amen
TTITLE8=Knock On Wood
TTITLE9=Old Man Trouble
TTITLE10=I'm Coming Home
TTITLE11=Stand By Me
EXTD=Genre is "R&B", (wasn't an option on submit window)
EXTT0=
EXTT1=
EXTT2=
EXTT3=
EXTT4=
EXTT5=
EXTT6=
EXTT7=
EXTT8=
EXTT9=
EXTT10=
EXTT11=
PLAYORDER=
